<?xml version="1.0" encoding="utf-8"?>
<!-- Generator: Adobe Illustrator 19.2.1, SVG Export Plug-In . SVG Version: 6.00 Build 0)  -->
<svg version="1.1" id="Слой_1" xmlns="http://www.w3.org/2000/svg" xmlns:xlink="http://www.w3.org/1999/xlink" x="0px" y="0px"
	 viewBox="0 0 128 51.3" style="enable-background:new 0 0 128 51.3;" xml:space="preserve">
<style type="text/css">
	.st0{fill:#010202;}
	.st1{fill:#B73A59;}
</style>
<g>
	<path class="st0" d="M0,18.4c0-1.7,0.4-3.2,1.1-4.7c0.7-1.4,1.8-2.6,3.3-3.5c1.5-0.9,3.1-1.4,5-1.4c1.3,0,2.5,0.3,3.6,1L12,11.6
		c-1-0.6-2-0.9-3.1-0.9c-1.4,0-2.7,0.4-3.8,1.2c-1.1,0.8-2,1.7-2.5,2.9C2,16,1.7,17.3,1.7,18.7c0,1.2,0.2,2.3,0.7,3.4s1.1,2,2,2.9
		s2.1,1.6,3.7,2.1c1.6,0.5,3.3,0.8,5.3,0.8c1,0,1.7,0,2.2-0.1c-0.2-1.4-0.3-2.8-0.3-4.2c0-1.5,0.1-3,0.3-4.6c0.2-1.6,0.5-3.1,1-4.6
		c0.4-1.5,0.9-3,1.5-4.4c0.6-1.4,1.3-2.7,2.1-3.9C21.1,4.9,22,3.9,22.9,3c1-0.9,2-1.6,3.2-2.1c1.2-0.5,2.4-0.7,3.7-0.7
		c2.1,0,3.7,0.7,4.8,2.1s1.6,3.2,1.6,5.5c0,0.8-0.2,1.9-0.6,3.4c-0.4,1.5-0.9,3-1.6,4.4c-0.7,1.5-1.5,2.9-2.6,4.3
		c-1.1,1.4-2.2,2.7-3.5,3.9c-1.3,1.2-2.8,2.2-4.5,3.1c-1.7,0.9-3.5,1.5-5.4,1.9c0.4,2.1,1.1,3.7,2,5c1,1.2,2.2,1.8,3.8,1.8
		c1.1,0,2-0.2,2.9-0.7c0.8-0.4,1.5-1,2-1.6c0.5-0.7,1-1.4,1.4-2.4s0.8-1.8,1-2.6s0.5-1.7,0.8-2.6s0.6-1.7,0.8-2.2l2.1,0.9
		c-0.5,1.3-1.1,2.6-1.8,3.8c-0.1,0.2-0.2,0.8-0.4,1.8c-0.2,1-0.4,2.4-0.7,4.2c-0.3,1.8-0.6,3.7-1,5.6c-0.3,1.7-0.5,2.8-0.6,3.2
		c-0.1,0.4-0.2,0.9-0.4,1.5c-0.2,0.6-0.4,1.2-0.7,1.9c-0.3,0.6-0.7,1.3-1.1,1.9s-0.9,1.1-1.4,1.5c-0.5,0.4-1.1,0.7-1.8,1
		s-1.5,0.4-2.3,0.4c-1.8,0-3.1-0.5-4.1-1.6c-1-1-1.4-2.3-1.4-3.7c0-1.4,0.5-2.7,1.4-3.7c0.9-1.1,2.1-1.6,3.7-1.7
		c0.1,1,0.2,1.7,0.3,2.2c-1,0.1-1.8,0.5-2.4,1.2c-0.6,0.7-0.9,1.6-0.9,2.5c0,1,0.3,1.8,0.9,2.5c0.6,0.7,1.5,1,2.6,1
		c2.1,0,3.6-1.2,4.7-3.6c0.6-1.3,1.1-3.4,1.6-6.4c0-0.1,0-0.3,0.1-0.6c0.3-1.7,0.6-3.7,1-6.1c-1.6,2.5-3.8,3.8-6.7,3.8
		c-1.9,0-3.5-0.7-4.8-2.1s-2.1-3.3-2.7-5.6c-0.8,0.1-1.6,0.1-2.4,0.1c-2.3,0-4.3-0.3-6-0.9c-1.8-0.6-3.2-1.4-4.2-2.5
		s-1.9-2.2-2.4-3.4C0.3,21,0,19.7,0,18.4z M17.6,24c0,1.1,0.1,2.2,0.2,3.4c1.8-0.4,3.5-1,5-1.8c1.6-0.8,3-1.8,4.1-2.8
		c1.2-1.1,2.2-2.3,3.2-3.5c0.9-1.3,1.7-2.6,2.3-3.9c0.6-1.3,1-2.7,1.2-4S34,8.8,34,7.5c0-1.9-0.4-3.4-1.1-4.4
		c-0.7-1-1.8-1.5-3.2-1.5c-1.4,0-2.8,0.5-4.1,1.4c-1.3,0.9-2.4,2.2-3.4,3.7c-0.9,1.5-1.8,3.3-2.5,5.2c-0.7,1.9-1.2,4-1.6,6
		C17.8,20,17.6,22.1,17.6,24z"/>
	<path class="st0" d="M36.4,26.5c0.7-2.1,1.4-4.4,1.9-7.1c-0.2-0.6-0.3-1.4-0.3-2.5c0-1.4,0.2-3,0.5-4.8l1.9,0.5
		c0,1.5-0.3,3.4-0.7,5.7l-0.2,0.8c0.1,0.2,0.4,0.6,0.9,1.2c0.4,0.6,0.8,1,1,1.4c0.2,0.4,0.5,0.9,0.7,1.5s0.3,1.3,0.3,1.9
		c0,0.9-0.2,1.8-0.5,3s-0.6,2.2-1,3.1c-0.3,1-0.5,1.8-0.5,2.3c0,0.8,0.3,1.1,0.8,1.1c1,0,2.6-2.7,4.7-8.2c0.1,0,0.3,0,0.5,0.1
		s0.3,0.2,0.3,0.3c-1.3,3.3-2.1,5.4-2.6,6.4c-0.9,1.9-1.9,3-2.9,3.3c-0.2,0.1-0.5,0.1-0.7,0.1c-1.5,0-2.2-0.9-2.2-2.8
		c0-0.9,0.3-2.4,1-4.2c0.6-1.9,1-3.2,1-4.1c0-0.5-0.1-0.9-0.2-1.4c-0.1-0.5-0.2-0.8-0.3-1.1c-0.1-0.3-0.3-0.6-0.5-1.1
		c-0.2-0.5-0.4-0.8-0.5-1c-0.6,2.4-1.2,4.3-1.8,6C36.6,26.8,36.4,26.7,36.4,26.5z"/>
	<path class="st0" d="M45.4,31.9c0-1.9,0.3-4,0.9-6.2c0.6-2.2,1.4-4.1,2.5-5.7s2.2-2.4,3.3-2.4c1.4,0,2.3,1.1,2.5,3.2l0.6-2.9h1.8
		c-1.2,6-2,10.6-2.4,13.6c-0.1,0.7-0.2,1.4-0.2,2c0,1,0.2,1.5,0.5,1.5c0.5,0,1.1-0.7,2-2.2c0.8-1.4,1.8-3.5,2.8-6.2
		c0.1,0,0.3,0.1,0.5,0.2c0.2,0.1,0.3,0.2,0.3,0.2c-1.5,3.6-2.7,6.1-3.5,7.5c-0.9,1.4-1.7,2.1-2.5,2.1c-1.1,0-1.6-1.4-1.6-4.2l0.2-2
		c-1.4,4.1-3.1,6.2-5,6.2C46.2,36.6,45.4,35.1,45.4,31.9z M47.4,31.9c0,1.9,0.4,2.9,1.2,2.9c0.7,0,1.4-0.7,2.3-2.2
		c0.8-1.5,1.5-3.2,2-5.2c0.5-2,0.8-3.6,0.8-5c0-1-0.1-1.8-0.4-2.4c-0.3-0.6-0.7-0.9-1.2-0.9c-0.7,0-1.4,0.7-2.2,2.2
		s-1.4,3.2-1.8,5.2C47.6,28.6,47.4,30.4,47.4,31.9z"/>
	<path class="st0" d="M58,41c0-4.2,0.8-10.3,2.3-18.2c1.5-7.9,2.9-13.3,4.1-16.3c0.3-0.8,0.8-1.4,1.3-1.9c0.5-0.4,1-0.7,1.5-0.7
		c0.5,0,1,0.2,1.3,0.6c0.3,0.4,0.5,1,0.5,1.7c0,1.5-0.3,3.3-0.9,5.5c-0.6,2.2-1.3,4.3-2.2,6.3s-1.7,3.9-2.4,5.4
		c-0.7,1.5-1.4,2.8-1.9,3.7c-0.4,2.4-0.8,4.5-1,6.4c1.2-0.3,2.5-1,3.8-2.2c1.3-1.2,2.3-2.9,3.1-4.9c0.1,0,0.2,0.1,0.4,0.2
		c0.2,0.1,0.3,0.2,0.3,0.3c-1.9,4.2-4.2,6.7-6.7,7.6c1,0.8,1.7,1.7,2.2,2.8c0.5,1.1,0.7,2.2,0.7,3.3c0,1.4-0.3,2.7-1,3.7
		c-0.7,1-1.5,1.6-2.4,1.6c-0.9,0-1.6-0.4-2.1-1.1C58.2,44.2,58,42.9,58,41z M59.8,41.4c0,2.2,0.4,3.4,1.2,3.4c0.5,0,1-0.4,1.3-1.1
		c0.4-0.7,0.6-1.6,0.6-2.6c0-1.1-0.2-2.1-0.6-3.1c-0.4-1-1.1-1.9-2-2.6C59.9,38.5,59.8,40.6,59.8,41.4z M62.1,24.1
		c1.2-2.6,2.5-5.7,3.7-9.3s1.9-6.4,1.9-8.4c0-0.6-0.1-0.9-0.4-0.9c-0.5,0-1.3,1.8-2.2,5.3C64.1,14.4,63.1,18.8,62.1,24.1z"/>
	<path class="st0" d="M65.6,41c0-4.2,0.8-10.3,2.3-18.2c1.5-7.9,2.9-13.3,4.1-16.3c0.3-0.8,0.8-1.4,1.3-1.9c0.5-0.4,1-0.7,1.5-0.7
		c0.5,0,1,0.2,1.3,0.6c0.3,0.4,0.5,1,0.5,1.7c0,1.5-0.3,3.3-0.9,5.5c-0.6,2.2-1.3,4.3-2.2,6.3s-1.7,3.9-2.4,5.4
		c-0.7,1.5-1.4,2.8-1.9,3.7c-0.4,2.4-0.8,4.5-1,6.4c1.2-0.3,2.5-1,3.8-2.2c1.3-1.2,2.3-2.9,3.1-4.9c0.1,0,0.2,0.1,0.4,0.2
		c0.2,0.1,0.3,0.2,0.3,0.3c-1.9,4.2-4.2,6.7-6.7,7.6c1,0.8,1.7,1.7,2.2,2.8c0.5,1.1,0.7,2.2,0.7,3.3c0,1.4-0.3,2.7-1,3.7
		c-0.7,1-1.5,1.6-2.4,1.6c-0.9,0-1.6-0.4-2.1-1.1C65.9,44.2,65.6,42.9,65.6,41z M67.4,41.4c0,2.2,0.4,3.4,1.2,3.4
		c0.5,0,1-0.4,1.3-1.1c0.4-0.7,0.6-1.6,0.6-2.6c0-1.1-0.2-2.1-0.6-3.1c-0.4-1-1.1-1.9-2-2.6C67.6,38.5,67.4,40.6,67.4,41.4z
		 M69.8,24.1c1.2-2.6,2.5-5.7,3.7-9.3s1.9-6.4,1.9-8.4c0-0.6-0.1-0.9-0.4-0.9c-0.5,0-1.3,1.8-2.2,5.3C71.7,14.4,70.8,18.8,69.8,24.1
		z"/>
	<path class="st1" d="M78.5,48.7c0.3-1.8,0.6-3.4,0.8-4.9c0.3-1.5,0.4-2.7,0.5-3.3l0.2-1c2.2-12.6,3.4-19.8,3.5-21.6h1.9l-0.7,4.4
		c0.6-1.4,1.3-2.6,2-3.4s1.5-1.2,2.3-1.2c1,0,1.8,0.5,2.3,1.5s0.7,2.3,0.7,3.9c0,2.2-0.4,4.6-1.3,7.1c-0.8,2.5-1.9,4.4-3.2,5.6
		c1.6-0.4,3.1-1.4,4.5-3s2.5-3.5,3.4-5.9c0.1,0,0.2,0.1,0.4,0.2c0.2,0.1,0.3,0.2,0.3,0.3l-0.5,1.2c-1,2.5-2.4,4.6-4.2,6.1
		c-1.8,1.5-3.6,2.3-5.5,2.3c-0.9,0-1.7-0.2-2.2-0.6c-0.5-0.4-0.9-1.1-1.1-1.9c-0.3,1.6-0.7,4-1.2,7.3c-0.5,3.2-0.9,5.7-1.2,7.3H78.5
		z M83.4,31.4c0,2.2,0.6,3.4,1.7,3.4c0.8,0,1.6-0.7,2.4-2.1c0.8-1.4,1.4-3.1,1.8-5c0.4-1.9,0.7-3.6,0.7-5.1c0-1-0.1-1.8-0.4-2.4
		c-0.3-0.6-0.6-1-1.1-1c-0.7,0-1.5,0.7-2.3,2.2c-0.8,1.4-1.5,3.3-2.1,5.6c0,0.3-0.1,0.7-0.2,1.4c-0.1,0.7-0.2,1.3-0.3,1.8
		C83.4,30.6,83.4,31,83.4,31.4z"/>
	<path class="st1" d="M94.9,32.2c0-0.9,0.1-2.1,0.3-3.5c0.2-1.4,0.4-2.6,0.6-3.5c0.2-0.9,0.5-2.3,0.9-4.2c0.4-1.9,0.6-3,0.7-3.3h2.2
		c-0.6,3-1.1,5.1-1.3,6.3c-0.3,1.3-0.5,2.8-0.8,4.7c-0.3,1.9-0.4,3.3-0.4,4.3c0,1.1,0.2,1.7,0.7,1.7c0.6,0,1.3-0.7,2.1-2.1
		c0.8-1.4,1.7-3.4,2.7-6.2c0.1,0,0.3,0,0.5,0.1c0.2,0.1,0.3,0.2,0.3,0.3c-1.3,3.4-2.2,5.6-2.7,6.7c-1,1.8-2,2.8-3,3
		c-0.1,0-0.3,0-0.4,0c-0.7,0-1.3-0.4-1.6-1.2C95.1,34.7,94.9,33.6,94.9,32.2z M97.9,13.4c0-0.5,0.2-1,0.5-1.4s0.7-0.6,1.2-0.6
		c0.4,0,0.7,0.1,0.9,0.4s0.3,0.6,0.3,1c0,0.5-0.2,0.9-0.5,1.3s-0.7,0.6-1.2,0.6c-0.4,0-0.7-0.1-0.9-0.4S97.9,13.8,97.9,13.4z"/>
	<path class="st1" d="M100.4,36.4c0.3-2.3,0.6-4.4,1.1-6.3c1.2-6.3,2-10.4,2.3-12.4h2.2l-1,5.7c0.4-0.7,0.7-1.3,0.9-1.8
		c0.3-0.5,0.6-1,1-1.6c0.4-0.6,0.7-1,1.1-1.3c0.3-0.3,0.7-0.6,1.2-0.8s0.9-0.3,1.4-0.3c0.7,0,1.2,0.2,1.6,0.7
		c0.4,0.5,0.5,1.1,0.5,1.9c0,1.1-0.5,3.3-1.5,6.5c-1,3.2-1.5,5.4-1.5,6.5c0,1,0.3,1.5,1,1.5c0.6,0,1.3-0.7,2.1-2.1s1.7-3.5,2.7-6.1
		c0.1,0,0.3,0.1,0.5,0.2c0.2,0.1,0.3,0.2,0.3,0.2l-0.4,1.2c-0.5,1.2-0.9,2.3-1.3,3.2c-0.4,0.9-0.9,1.8-1.4,2.7
		c-0.5,0.9-1.1,1.5-1.6,2c-0.6,0.5-1.1,0.7-1.7,0.7c-0.7,0-1.2-0.3-1.7-0.8c-0.4-0.5-0.6-1.3-0.6-2.3c0-1.1,0.2-2.5,0.7-4.3
		c0.5-1.8,1-3.5,1.5-5.1s0.7-2.8,0.7-3.5c0-1-0.3-1.5-1-1.5c-0.7,0-1.6,0.9-2.7,2.6c-1.1,1.8-2,3.9-2.7,6.5l-1.5,8.1H100.4z"/>
	<path class="st1" d="M114.2,36.4l0.2-1.5c0-0.7,0.1-1.4,0.3-2.2c0.1-0.8,0.3-1.6,0.4-2.3c0.1-0.7,0.2-1.2,0.2-1.3
		c0.5-2.8,0.9-5.1,1.2-6.8c0.3-1.8,0.7-3.9,1.1-6.3c0.4-2.4,0.9-4.5,1.3-6.2s0.9-3,1.3-3.9c0.5-1.2,1.3-1.8,2.5-1.8
		c1.1,0,1.7,0.7,1.7,2c0,0.7-0.2,1.6-0.5,2.7c-0.3,1.1-0.8,2.4-1.5,4.1c-0.7,1.6-1.3,3.1-1.9,4.2s-1.3,2.9-2.4,5.1l-0.4,2.5
		c0.9-2.3,1.8-4,2.7-5.3c0.9-1.3,1.8-1.9,2.8-1.9c0.5,0,0.9,0.2,1.2,0.5s0.4,0.8,0.4,1.5c0,1.4-0.6,3.1-1.8,5
		c-1.2,2-2.5,3.3-3.9,4.1c0.4,0.5,0.7,1.3,1,2.3c0.3,1,0.5,1.9,0.7,2.7s0.5,1.1,0.8,1.1c0.6,0,1.3-0.8,2.3-2.3s1.9-3.5,2.8-5.9
		c0.1,0,0.2,0,0.3,0.1s0.2,0.1,0.3,0.2c0.1,0.1,0.1,0.1,0.1,0.1c-0.1,0.4-0.3,0.8-0.4,1.2c-0.5,1.2-0.9,2.3-1.3,3.2
		c-0.4,0.9-0.9,1.8-1.4,2.6s-1,1.5-1.6,2c-0.5,0.5-1,0.7-1.6,0.7s-0.9-0.2-1.3-0.6c-0.3-0.4-0.6-0.9-0.8-1.5s-0.3-1.3-0.5-1.9
		c-0.2-0.6-0.3-1.3-0.5-2c-0.2-0.7-0.3-1.2-0.4-1.5c0,0-0.1,0-0.2,0c-0.1,0-0.2,0-0.2,0c0,0-0.1,0-0.1,0c-0.1,0-0.1,0-0.1,0
		l-1.2,7.3H114.2z M117.4,27.6c0.5,0,0.8,0.1,1.1,0.2c1.1-0.6,2.1-1.8,3.2-3.6c1.1-1.8,1.6-3.1,1.6-4.1c0-0.5-0.2-0.8-0.6-0.9
		c-1.2,0-2.9,2.4-5.1,7.3L117.4,27.6z M118.7,19.4c2.8-6.6,4.2-10.9,4.3-13c0-0.6-0.1-0.9-0.4-0.9c-0.6,0-1.2,1.2-1.8,3.7
		C120.2,11.6,119.5,15,118.7,19.4z"/>
</g>
<g>
</g>
</svg>
